Coordinates
version=1
nRows=26
nColumns=22
inDegrees=yes

Units are S.I. units (second, meters, Newtons, ...)
If the header above contains a line with 'inDegrees', this indicates whether rotational values are in degrees (yes) or radians (no).

endheader
time	pelvis_tilt	pelvis_list	pelvis_rotation	pelvis_tx	pelvis_ty	pelvis_tz	hip_flexion_r	hip_adduction_r	hip_rotation_r	knee_angle_r	ankle_angle_r	subtalar_angle_r	hip_flexion_l	hip_adduction_l	hip_rotation_l	knee_angle_l	ankle_angle_l	subtalar_angle_l	lumbar_extension	lumbar_bending	lumbar_rotation
      5.62000000	      4.06947992	     -2.39980788	    258.37462895	     -0.57136445	      1.06567469	      0.11005423	      8.16933450	     -9.09004430	      2.96150623	    -61.31486618	     -0.05701230	     14.53566746	     10.19100638	     12.11940100	    -11.42474377	    -13.72159690	      5.01766036	    -15.23562024	     -5.08846918	     -8.60700754	     -2.61335998
      5.63000000	      4.10200236	     -2.53093095	    259.39117840	     -0.56966973	      1.06634669	      0.11848395	      9.08058770	     -9.07698598	      3.24382065	    -62.02075552	      0.54969992	     13.68319353	      9.38191577	     12.49360090	    -10.35988232	    -13.57427194	      5.29011557	    -15.24320401	     -5.28887734	     -8.55342073	     -2.89287893
      5.64000000	      4.11438513	     -2.64719882	    260.39204294	     -0.56796031	      1.06698841	      0.12676655	      9.98275023	     -9.01938792	      3.56559670	    -62.53284578	      1.13076406	     12.78697028	      8.57730760	     12.81355798	     -9.32756959	    -13.41996932	      5.57245818	    -15.22947198	     -5.47788466	     -8.47739532	     -3.12567531
      5.65000000	      4.11486904	     -2.72917373	    261.37893818	     -0.56623451	      1.06756905	      0.13490834	     10.89735223	     -8.92570955	      3.92538055	    -62.85720607	      1.67973254	     11.91834709	      7.79645584	     13.08787486	     -8.30786951	    -13.24763583	      5.84935843	    -15.19099836	     -5.63224177	     -8.38618437	     -3.31805314
      5.66000000	      4.10684438	     -2.77688784	    262.35765378	     -0.56447172	      1.06808063	      0.14292052	     11.82517222	     -8.80673525	      4.31123929	    -63.00184853	      2.20218577	     11.09016645	      7.04253145	     13.32341546	     -7.30242164	    -13.06152106	      6.11156324	    -15.12361296	     -5.75621476	     -8.28049398	     -3.49115798
      5.67000000	      4.09474114	     -2.79784283	    263.33592546	     -0.56266983	      1.06852420	      0.15082792	     12.75288215	     -8.67816597	      4.70457565	    -62.97151468	      2.73686191	     10.28765802	      6.31016493	     13.52757718	     -6.30329177	    -12.86619073	      6.36888724	    -15.02276707	     -5.85550919	     -8.16993073	     -3.65829950
      5.68000000	      4.07557698	     -2.79177136	    264.32301414	     -0.56082434	      1.06890651	      0.15866158	     13.67610868	     -8.54290764	      5.09049473	    -62.77163339	      3.26530947	      9.55516846	      5.59315584	     13.69994889	     -5.29102887	    -12.65214379	      6.60846003	    -14.88942333	     -5.92873743	     -8.04742696	     -3.84178076
      5.69000000	      4.05643545	     -2.77685948	    265.32174999	     -0.55893879	      1.06923140	      0.16641803	     14.57583313	     -8.41788330	      5.45536612	    -62.41398238	      3.85035782	      8.84344682	      4.88778138	     13.84900073	     -4.26861791	    -12.44901214	      6.84451285	    -14.72095960	     -5.99742135	     -7.92871745	     -4.02773335
      5.70000000	      4.03972876	     -2.75071313	    266.34610669	     -0.55698385	      1.06950009	      0.17413355	     15.44784749	     -8.31599111	      5.77506255	    -61.90388959	      4.47823866	      8.16309941	      4.18655372	     13.97985246	     -3.22979579	    -12.24024318	      7.07233748	    -14.52179993	     -6.05606857	     -7.81003154	     -4.25745090
      5.71000000	      4.03051232	     -2.71762914	    267.39949114	     -0.55494304	      1.06972086	      0.18182298	     16.28286995	     -8.24920761	      6.03918012	    -61.24341263	      5.15142017	      7.50185556	      3.48867408	     14.09956692	     -2.16959322	    -12.03480398	      7.29438092	    -14.29770452	     -6.10702066	     -7.69547804	     -4.53194346
      5.72000000	      4.02410789	     -2.67604831	    268.48608254	     -0.55280732	      1.06989712	      0.18947493	     17.08372382	     -8.21530022	      6.23962571	    -60.44395672	      5.80999696	      6.88025002	      2.79777738	     14.20527660	     -1.05649089	    -11.83915194	      7.50192058	    -14.06442673	     -6.14911258	     -7.57986408	     -4.84222266
      5.73000000	      4.02606716	     -2.63265744	    269.60085379	     -0.55058062	      1.07003516	      0.19711518	     17.83589102	     -8.22294537	      6.37206817	    -59.50725844	      6.48093336	      6.22965099	      2.11169916	     14.30060002	      0.06905764	    -11.66059440	      7.71171784	    -13.81760117	     -6.18446953	     -7.46890781	     -5.19248159
      5.74000000	      4.02951456	     -2.58501176	    270.74033440	     -0.54825243	      1.07014775	      0.20475118	     18.53797780	     -8.26404555	      6.43336363	    -58.43418257	      7.09581088	      5.54910777	      1.42900610	     14.38101220	      1.22410814	    -11.49379273	      7.92161570	    -13.56768021	     -6.20727764	     -7.35249669	     -5.57523032
      5.75000000	      4.03153959	     -2.53597309	    271.90169215	     -0.54584840	      1.07023837	      0.21236955	     19.18313095	     -8.32917032	      6.42747134	    -57.23280531	      7.66131925	      4.83318315	      0.75778103	     14.44122156	      2.39715648	    -11.35691917	      8.13599401	    -13.32446146	     -6.22234966	     -7.23341106	     -5.97308315
      5.76000000	      4.02277657	     -2.48860104	    273.07418060	     -0.54337931	      1.07032355	      0.21999443	     19.76543055	     -8.40253932	      6.36038243	    -55.90516977	      8.12467038	      4.10042429	      0.08679618	     14.47245858	      3.59068211	    -11.23337030	      8.35601472	    -13.09654487	     -6.22746063	     -7.10286678	     -6.37456408
      5.77000000	      4.00289108	     -2.44071842	    274.25349010	     -0.54086570	      1.07039411	      0.22761272	     20.28758561	     -8.47828875	      6.23679968	    -54.46086798	      8.50707525	      3.40814425	     -0.57339234	     14.47365594	      4.79385694	    -11.13403944	      8.58170501	    -12.90006917	     -6.22137080	     -6.96337664	     -6.77349245
      5.78000000	      3.96680277	     -2.39371628	    275.43743368	     -0.53833247	      1.07045121	      0.23521905	     20.74832385	     -8.54438957	      6.06006967	    -52.90741060	      8.80888330	      2.79633204	     -1.21851687	     14.43866163	      6.00262228	    -11.06570545	      8.80499237	    -12.73987424	     -6.20607158	     -6.81406348	     -7.16128588
      5.79000000	      3.91818588	     -2.35100649	    276.61270830	     -0.53580143	      1.07049070	      0.24282435	     21.14806996	     -8.59646842	      5.84491291	    -51.25480406	      9.03302741	      2.30297904	     -1.85529215	     14.37176807	      7.20834240	    -11.01825792	      9.03602402	    -12.62033222	     -6.18224704	     -6.65795234	     -7.52985352
      5.80000000	      3.85255435	     -2.31505167	    277.77320040	     -0.53330109	      1.07051134	      0.25042351	     21.48697478	     -8.62516764	      5.59102764	    -49.50994388	      9.19029996	      1.92720718	     -2.47966800	     14.26717309	      8.40306539	    -10.99753683	      9.26013821	    -12.53358888	     -6.15336043	     -6.49400695	     -7.85907729
      5.81000000	      3.77555348	     -2.28200493	    278.91063042	     -0.53083883	      1.07049839	      0.25801098	     21.77243100	     -8.63054051	      5.31252653	    -47.67979121	      9.28656988	      1.68794892	     -3.08557162	     14.13331853	      9.57082217	    -11.00214913	      9.48199206	    -12.47603938	     -6.11667355	     -6.32559379	     -8.15867021
      5.82000000	      3.69388634	     -2.25525705	    280.02153593	     -0.52843313	      1.07044191	      0.26560436	     22.00516593	     -8.61656295	      5.01117967	    -45.78113038	      9.34385450	      1.57738859	     -3.67912009	     13.97536704	     10.69989490	    -11.02673881	      9.71138286	    -12.43771428	     -6.07605779	     -6.16474813	     -8.41864841
      5.83000000	      3.60807310	     -2.23444363	    281.09595245	     -0.52610916	      1.07033792	      0.27320038	     22.18959433	     -8.57839634	      4.69096221	    -43.82061300	      9.36521386	      1.58305687	     -4.25646548	     13.79472283	     11.77612218	    -11.07079306	      9.94551794	    -12.40628659	     -6.03468755	     -6.01362459	     -8.63509122
      5.84000000	      3.51784106	     -2.22335982	    282.13429568	     -0.52384472	      1.07018683	      0.28083185	     22.32183116	     -8.51687171	      4.34329393	    -41.80550421	      9.34509533	      1.69524154	     -4.82702783	     13.59085248	     12.78698729	    -11.12652882	     10.18497988	    -12.37002281	     -5.99266528	     -5.86841182	     -8.81126112
      5.85000000	      3.44463722	     -2.20950734	    283.14106480	     -0.52162715	      1.06995578	      0.28850607	     22.41927723	     -8.46307330	      3.94850989	    -39.75768131	      9.32816750	      1.91309192	     -5.38579138	     13.38936771	     13.74072539	    -11.18904682	     10.45375036	    -12.32902791	     -5.94470516	     -5.75732607	     -8.95156916
      5.86000000	      3.37014175	     -2.21042468	    284.10717576	     -0.51946884	      1.06968638	      0.29624787	     22.46247094	     -8.38556531	      3.50942415	    -37.67156891	      9.26627798	      2.22432945	     -5.95176213	     13.16662566	     14.62153374	    -11.24802922	     10.71990467	    -12.27226259	     -5.90428850	     -5.65282086	     -9.05833740
      5.87000000	      3.30672240	     -2.21446956	    285.04208559	     -0.51734602	      1.06935469	      0.30406902	     22.46587732	     -8.30637467	      2.99870816	    -35.56546267	      9.19094711	      2.61874350	     -6.52168886	     12.93719924	     15.43965281	    -11.29656032	     11.00005444	    -12.20509937	     -5.86218958	     -5.56985816	     -9.14031700
